#define max_width 8
#define max_height 8
static unsigned char max_bits[] = {
   0x00, 0x70, 0x60, 0x50, 0x0a, 0x06, 0x0e, 0x00 };
