/* XPM */
static char * closefcs_xpm[] = {
"24 24 14 1",
" 	c None",
".	c #2F343F",
"+	c #2C333E",
"@	c #29323D",
"#	c #403944",
"$	c #744A54",
"%	c #9A565F",
"&	c #333540",
"*	c #784B55",
"=	c #BA5F69",
"-	c #C6636C",
";	c #C2626B",
">	c #C0616A",
",	c #BF616A",
"........................",
"........................",
"........................",
"........................",
"........................",
"..........+@@+..........",
".........#$%%$#.........",
".......&*=-;;-=*&.......",
".......*>,,,,,,>*.......",
"......#=,,,,,,,,=#......",
".....+$-,,,,,,,,-$+.....",
".....@%;,,,,,,,,;%@.....",
".....@%;,,,,,,,,;%@.....",
".....+$-,,,,,,,,-$+.....",
"......#=,,,,,,,,=#......",
".......*>,,,,,,>*.......",
".......&*=-;;-=*&.......",
".........#$%%$#.........",
"..........+@@+..........",
"........................",
"........................",
"........................",
"........................",
"........................"};
