/* XPM */
static char * bullet_xpm[] = {
"10 10 2 1",
" 	c None",
".	c #D8DEE8",
"          ",
"          ",
"          ",
"          ",
"    ..    ",
"    ..    ",
"          ",
"          ",
"          ",
"          "};
