/* XPM */
static char * max_xpm[] = {
"18 18 3 1",
" 	c None",
".	c #FD7980",
"+	c #2F343F",
"..................",
"..................",
"..................",
"..................",
"..................",
"..................",
"..................",
"..................",
"..................",
".........+++......",
"..........++......",
".........+.+......",
"......+.+.........",
"......++..........",
"......+++.........",
"..................",
"..................",
".................."};
